<svg t="1722086387970" class="icon" viewBox="0 0 1024 1024" version="1.1" xmlns="http://www.w3.org/2000/svg" p-id="1079" width="200" height="200"><path d="M773.270528 334.318592c7.389184-0.013312 14.478336 2.925568 19.689472 8.164352L957.57824 511.428608l-164.61824 168.958976c-11.062272 10.694656-28.710912 10.389504-39.392256-0.68096-10.436608-10.80422401-10.436608-27.921408 0-38.725632L883.147776 511.40096l-129.580032-129.593344c-10.84416-10.912768-10.789888-28.548096 0.136192-39.405568C758.90176 337.245184 765.93664001 334.34624 773.270528 334.318592zM373.223424 484.431872l525.68064 0c15.389696 0 27.867136 12.491776 27.86713601 27.874304 0 15.389696-12.47744 27.867136-27.86713601 27.867136l-525.66835201 0c-15.403008-0.06144-27.826176-12.587008-27.75756799-27.97568 0.054272-15.301632 12.449792-27.697152 27.757568-27.76576L373.223424 484.431872zM651.623424 121.859072L651.623424 373.508096l-56.142848 0.080896 0-218.039296c0.013312-18.60096-15.049728-33.690624-33.650688-33.70496-0.01331201 0-0.04095999 0-0.06758399 0l-405.46304001 0c-18.60096-0.014336-33.690624 15.036416-33.718272 33.637376 0 0.01331201 0 0.03993601 0 0.06758401l0.830464 712.60774399c-0.014336 18.60096 15.048704 33.690624 33.649664 33.70495999 0.026624 0 0.054272 0 0.067584 1e-8L561.76230401 901.8624c18.60096 0.026624 33.70496-15.036416 33.71827199-33.637376 0-0.02048 0-0.04095999 0-0.067584l0-216.82176 56.142848 0 0 250.805248c0 30.77939199-24.95488 55.734272-55.734272 55.734272l-473.74336 0c-30.77939199 0-55.734272-24.95488-55.734272-55.734272l0-780.28288c0-30.780416 24.95488-55.735296 55.734272-55.735296l473.74336 0C626.668544 66.123776 651.623424 91.078656 651.623424 121.859072z" p-id="1080"></path></svg>